G04 Layer: BottomLayer*
G04 EasyEDA v6.5.40, 2024-02-07 14:48:28*
G04 c60ed690b32147d3aa64cc9936141d72,9a5be75d700b4a6385dc1106f27949ae,10*
G04 Gerber Generator version 0.2*
G04 Scale: 100 percent, Rotated: No, Reflected: No *
G04 Dimensions in millimeters *
G04 leading zeros omitted , absolute positions ,4 integer and 5 decimal *
%FSLAX45Y45*%
%MOMM*%

%AMMACRO1*21,1,$1,$2,0,0,$3*%
%ADD10C,0.6000*%
%ADD11C,0.2100*%
%ADD12MACRO1,0.8X0.9X0.0000*%
%ADD13R,0.8640X0.8065*%
%ADD14MACRO1,0.864X0.8065X0.0000*%
%ADD15C,0.6096*%

%LPD*%
G36*
X711708Y-322580D02*
G01*
X705815Y-325628D01*
X696417Y-331114D01*
X687984Y-335534D01*
X683361Y-337210D01*
X678027Y-338429D01*
X671677Y-339242D01*
X664057Y-339496D01*
X664057Y-360476D01*
X671677Y-360781D01*
X678027Y-361543D01*
X683361Y-362813D01*
X687984Y-364490D01*
X692200Y-366522D01*
X705815Y-374396D01*
X711708Y-377444D01*
X740257Y-350012D01*
G37*
G36*
X760679Y-299466D02*
G01*
X755040Y-304698D01*
X750011Y-308610D01*
X745388Y-311505D01*
X740918Y-313588D01*
X736498Y-315163D01*
X726846Y-317703D01*
X715010Y-321208D01*
X714197Y-360781D01*
X753770Y-360019D01*
X755802Y-353720D01*
X758545Y-343154D01*
X761390Y-334060D01*
X763524Y-329641D01*
X766368Y-324967D01*
X770280Y-319938D01*
X775512Y-314350D01*
G37*
G36*
X336702Y-772566D02*
G01*
X325831Y-778459D01*
X317246Y-783488D01*
X312978Y-785520D01*
X308356Y-787196D01*
X303072Y-788416D01*
X296722Y-789228D01*
X289052Y-789482D01*
X289052Y-810514D01*
X296722Y-810768D01*
X303072Y-811580D01*
X308356Y-812800D01*
X312978Y-814476D01*
X317246Y-816508D01*
X325831Y-821537D01*
X336702Y-827430D01*
X365252Y-799998D01*
G37*
D10*
X175003Y-175003D02*
G01*
X328457Y-328457D01*
X344271Y-339023D01*
X361840Y-346301D01*
X380494Y-350012D01*
X429996Y-350012D01*
D11*
X570001Y-381726D02*
G01*
X570001Y-519663D01*
X575000Y-524662D01*
X570001Y-381726D02*
G01*
X576031Y-367169D01*
X587171Y-356029D01*
X601728Y-349999D01*
X724999Y-349999D01*
X724999Y-349999D02*
G01*
X804788Y-270210D01*
X814697Y-255381D01*
X821519Y-238907D01*
X824999Y-221416D01*
X824999Y-175000D01*
X824999Y-824999D02*
G01*
X699391Y-699391D01*
X681743Y-687598D01*
X662132Y-679475D01*
X641314Y-675335D01*
X575000Y-675335D01*
X175000Y-824999D02*
G01*
X193504Y-806495D01*
X209191Y-799998D01*
X349999Y-799998D01*
D12*
G01*
X569998Y-349999D03*
G01*
X429999Y-349999D03*
G36*
X302000Y-824999D02*
G01*
X301086Y-809683D01*
X298317Y-794595D01*
X293745Y-779965D01*
X287446Y-765970D01*
X279521Y-752863D01*
X270073Y-740773D01*
X259227Y-729927D01*
X247136Y-720478D01*
X234030Y-712553D01*
X220035Y-706254D01*
X205404Y-701682D01*
X190317Y-698914D01*
X175000Y-697999D01*
X175000Y-697999D01*
X159684Y-698914D01*
X144597Y-701682D01*
X129966Y-706254D01*
X115971Y-712553D01*
X102864Y-720478D01*
X90774Y-729927D01*
X79928Y-740773D01*
X70479Y-752863D01*
X62555Y-765970D01*
X56255Y-779965D01*
X51683Y-794595D01*
X48915Y-809683D01*
X48000Y-824999D01*
X48000Y-824999D01*
X48915Y-840315D01*
X51683Y-855403D01*
X56255Y-870033D01*
X62555Y-884029D01*
X70479Y-897135D01*
X79928Y-909226D01*
X90774Y-920071D01*
X102864Y-929520D01*
X115971Y-937445D01*
X129966Y-943744D01*
X144597Y-948316D01*
X159684Y-951085D01*
X175000Y-951999D01*
X175000Y-951999D01*
X190317Y-951085D01*
X205404Y-948316D01*
X220035Y-943744D01*
X234030Y-937445D01*
X247136Y-929520D01*
X259227Y-920071D01*
X270073Y-909226D01*
X279521Y-897135D01*
X287446Y-884029D01*
X293745Y-870033D01*
X298317Y-855403D01*
X301086Y-840315D01*
X302000Y-824999D01*
G37*
G36*
X951999Y-175000D02*
G01*
X951085Y-159684D01*
X948316Y-144597D01*
X943744Y-129966D01*
X937445Y-115971D01*
X929520Y-102864D01*
X920071Y-90774D01*
X909226Y-79928D01*
X897135Y-70479D01*
X884029Y-62555D01*
X870033Y-56255D01*
X855403Y-51683D01*
X840315Y-48915D01*
X824999Y-48000D01*
X824999Y-48000D01*
X809683Y-48915D01*
X794595Y-51683D01*
X779965Y-56255D01*
X765970Y-62555D01*
X752863Y-70479D01*
X740773Y-79928D01*
X729927Y-90774D01*
X720478Y-102864D01*
X712553Y-115971D01*
X706254Y-129966D01*
X701682Y-144597D01*
X698914Y-159684D01*
X697999Y-175000D01*
X697999Y-175000D01*
X698914Y-190317D01*
X701682Y-205404D01*
X706254Y-220035D01*
X712553Y-234030D01*
X720478Y-247136D01*
X729927Y-259227D01*
X740773Y-270073D01*
X752863Y-279521D01*
X765970Y-287446D01*
X779965Y-293745D01*
X794595Y-298317D01*
X809683Y-301086D01*
X824999Y-302000D01*
X824999Y-302000D01*
X840315Y-301086D01*
X855403Y-298317D01*
X870033Y-293745D01*
X884029Y-287446D01*
X897135Y-279521D01*
X909226Y-270073D01*
X920071Y-259227D01*
X929520Y-247136D01*
X937445Y-234030D01*
X943744Y-220035D01*
X948316Y-205404D01*
X951085Y-190317D01*
X951999Y-175000D01*
G37*
G36*
X951999Y-824999D02*
G01*
X951085Y-809683D01*
X948316Y-794595D01*
X943744Y-779965D01*
X937445Y-765970D01*
X929520Y-752863D01*
X920071Y-740773D01*
X909226Y-729927D01*
X897135Y-720478D01*
X884029Y-712553D01*
X870033Y-706254D01*
X855403Y-701682D01*
X840315Y-698914D01*
X824999Y-697999D01*
X824999Y-697999D01*
X809683Y-698914D01*
X794595Y-701682D01*
X779965Y-706254D01*
X765970Y-712553D01*
X752863Y-720478D01*
X740773Y-729927D01*
X729927Y-740773D01*
X720478Y-752863D01*
X712553Y-765970D01*
X706254Y-779965D01*
X701682Y-794595D01*
X698914Y-809683D01*
X697999Y-824999D01*
X697999Y-824999D01*
X698914Y-840315D01*
X701682Y-855403D01*
X706254Y-870033D01*
X712553Y-884029D01*
X720478Y-897135D01*
X729927Y-909226D01*
X740773Y-920071D01*
X752863Y-929520D01*
X765970Y-937445D01*
X779965Y-943744D01*
X794595Y-948316D01*
X809683Y-951085D01*
X824999Y-951999D01*
X824999Y-951999D01*
X840315Y-951085D01*
X855403Y-948316D01*
X870033Y-943744D01*
X884029Y-937445D01*
X897135Y-929520D01*
X909226Y-920071D01*
X920071Y-909226D01*
X929520Y-897135D01*
X937445Y-884029D01*
X943744Y-870033D01*
X948316Y-855403D01*
X951085Y-840315D01*
X951999Y-824999D01*
G37*
G36*
X302000Y-175000D02*
G01*
X301086Y-159684D01*
X298317Y-144597D01*
X293745Y-129966D01*
X287446Y-115971D01*
X279521Y-102864D01*
X270073Y-90774D01*
X259227Y-79928D01*
X247136Y-70479D01*
X234030Y-62555D01*
X220035Y-56255D01*
X205404Y-51683D01*
X190317Y-48915D01*
X175000Y-48000D01*
X175000Y-48000D01*
X159684Y-48915D01*
X144597Y-51683D01*
X129966Y-56255D01*
X115971Y-62555D01*
X102864Y-70479D01*
X90774Y-79928D01*
X79928Y-90774D01*
X70479Y-102864D01*
X62555Y-115971D01*
X56255Y-129966D01*
X51683Y-144597D01*
X48915Y-159684D01*
X48000Y-175000D01*
X48000Y-175000D01*
X48915Y-190317D01*
X51683Y-205404D01*
X56255Y-220035D01*
X62555Y-234030D01*
X70479Y-247136D01*
X79928Y-259227D01*
X90774Y-270073D01*
X102864Y-279521D01*
X115971Y-287446D01*
X129966Y-293745D01*
X144597Y-298317D01*
X159684Y-301086D01*
X175000Y-302000D01*
X175000Y-302000D01*
X190317Y-301086D01*
X205404Y-298317D01*
X220035Y-293745D01*
X234030Y-287446D01*
X247136Y-279521D01*
X259227Y-270073D01*
X270073Y-259227D01*
X279521Y-247136D01*
X287446Y-234030D01*
X293745Y-220035D01*
X298317Y-205404D01*
X301086Y-190317D01*
X302000Y-175000D01*
G37*
D13*
G01*
X575005Y-524662D03*
D14*
G01*
X575000Y-675323D03*
D11*
G75*
G01*
X697451Y-349999D02*
G03*
X744482Y-330517I0J66510D01*
D15*
G01*
X724992Y-350012D03*
G01*
X350012Y-799998D03*
M02*
