G04 Layer: TopLayer*
G04 EasyEDA v6.5.40, 2024-02-07 14:48:28*
G04 c60ed690b32147d3aa64cc9936141d72,9a5be75d700b4a6385dc1106f27949ae,10*
G04 Gerber Generator version 0.2*
G04 Scale: 100 percent, Rotated: No, Reflected: No *
G04 Dimensions in millimeters *
G04 leading zeros omitted , absolute positions ,4 integer and 5 decimal *
%FSLAX45Y45*%
%MOMM*%

%ADD10C,0.2100*%
%ADD11R,1.8000X1.8000*%
%ADD12C,0.6096*%

%LPD*%
G36*
X360781Y-789228D02*
G01*
X321208Y-789990D01*
X316179Y-808278D01*
X314553Y-811987D01*
X312318Y-815086D01*
X309270Y-817473D01*
X305155Y-818946D01*
X299770Y-819505D01*
X299770Y-840486D01*
X309118Y-840384D01*
X316941Y-839978D01*
X323596Y-839368D01*
X329438Y-838403D01*
X334873Y-837184D01*
X346049Y-833729D01*
X360019Y-828802D01*
G37*
G36*
X738276Y-322580D02*
G01*
X709777Y-350012D01*
X738276Y-377444D01*
X744169Y-374396D01*
X757783Y-366522D01*
X762000Y-364490D01*
X766622Y-362813D01*
X771956Y-361543D01*
X778306Y-360781D01*
X785977Y-360476D01*
X785977Y-339496D01*
X778306Y-339242D01*
X771956Y-338429D01*
X766622Y-337210D01*
X762000Y-335534D01*
X753567Y-331114D01*
X744169Y-325628D01*
G37*
D10*
X349999Y-799998D02*
G01*
X327797Y-822200D01*
X308975Y-829995D01*
X170002Y-829995D01*
X829995Y-170002D02*
G01*
X829995Y-308980D01*
X822200Y-327799D01*
X807796Y-342204D01*
X788977Y-349999D01*
X724999Y-349999D01*
D11*
G01*
X190093Y-809980D03*
G01*
X810082Y-809980D03*
G01*
X810082Y-189992D03*
G01*
X190093Y-189992D03*
D12*
G01*
X724992Y-350012D03*
G01*
X350012Y-799998D03*
M02*
