G04 Layer: TopSilkscreenLayer*
G04 EasyEDA v6.5.40, 2024-02-16 17:56:32*
G04 c60ed690b32147d3aa64cc9936141d72,9a5be75d700b4a6385dc1106f27949ae,10*
G04 Gerber Generator version 0.2*
G04 Scale: 100 percent, Rotated: No, Reflected: No *
G04 Dimensions in millimeters *
G04 leading zeros omitted , absolute positions ,4 integer and 5 decimal *
%FSLAX45Y45*%
%MOMM*%

%ADD10C,0.2100*%

%LPD*%
G36*
X492861Y-300024D02*
G01*
X492861Y-314807D01*
X478586Y-314807D01*
X478586Y-329641D01*
X464261Y-329641D01*
X464261Y-359257D01*
X449986Y-359257D01*
X449986Y-418541D01*
X435711Y-418541D01*
X435711Y-374091D01*
X392836Y-374091D01*
X392836Y-388874D01*
X378561Y-388874D01*
X378561Y-418541D01*
X364286Y-418541D01*
X364286Y-433324D01*
X449986Y-433324D01*
X449986Y-418541D01*
X478586Y-418541D01*
X478586Y-374091D01*
X492861Y-374091D01*
X492861Y-359257D01*
X507136Y-359257D01*
X507136Y-374091D01*
X521411Y-374091D01*
X521411Y-403707D01*
X550011Y-403707D01*
X550011Y-388874D01*
X564286Y-388874D01*
X564286Y-403707D01*
X550011Y-403707D01*
X550011Y-433324D01*
X535736Y-433324D01*
X535736Y-477774D01*
X507136Y-477774D01*
X507136Y-462940D01*
X492861Y-462940D01*
X492861Y-448157D01*
X464261Y-448157D01*
X464261Y-433324D01*
X364286Y-433324D01*
X364286Y-462940D01*
X378561Y-462940D01*
X378561Y-492607D01*
X392836Y-492607D01*
X392836Y-507390D01*
X378561Y-507390D01*
X378561Y-522224D01*
X364286Y-522224D01*
X364286Y-537057D01*
X350012Y-537057D01*
X350012Y-566674D01*
X335737Y-566674D01*
X335737Y-596290D01*
X321411Y-596290D01*
X321411Y-611124D01*
X307136Y-611124D01*
X307136Y-640740D01*
X300024Y-640740D01*
X300024Y-670356D01*
X449986Y-670356D01*
X449986Y-640740D01*
X350012Y-640740D01*
X350012Y-625906D01*
X364286Y-625906D01*
X364286Y-581456D01*
X378561Y-581456D01*
X378561Y-551840D01*
X392836Y-551840D01*
X392836Y-537057D01*
X407162Y-537057D01*
X407162Y-522224D01*
X392836Y-522224D01*
X392836Y-507390D01*
X421436Y-507390D01*
X421436Y-566674D01*
X435711Y-566674D01*
X435711Y-581456D01*
X449986Y-581456D01*
X449986Y-596290D01*
X535736Y-596290D01*
X535736Y-566674D01*
X564286Y-566674D01*
X564286Y-522224D01*
X578561Y-522224D01*
X578561Y-507390D01*
X592836Y-507390D01*
X592836Y-537057D01*
X607161Y-537057D01*
X607161Y-551840D01*
X621436Y-551840D01*
X621436Y-581456D01*
X635711Y-581456D01*
X635711Y-611124D01*
X649986Y-611124D01*
X649986Y-625906D01*
X664311Y-625906D01*
X664311Y-640740D01*
X578561Y-640740D01*
X578561Y-655574D01*
X564286Y-655574D01*
X564286Y-596290D01*
X464261Y-596290D01*
X464261Y-685190D01*
X478586Y-685190D01*
X478586Y-700024D01*
X550011Y-700024D01*
X550011Y-655574D01*
X564286Y-655574D01*
X564286Y-670356D01*
X700024Y-670356D01*
X700024Y-640740D01*
X692861Y-640740D01*
X692861Y-611124D01*
X678586Y-611124D01*
X678586Y-581456D01*
X664311Y-581456D01*
X664311Y-566674D01*
X649986Y-566674D01*
X649986Y-537057D01*
X635711Y-537057D01*
X635711Y-507390D01*
X621436Y-507390D01*
X621436Y-477774D01*
X607161Y-477774D01*
X607161Y-507390D01*
X592836Y-507390D01*
X592836Y-433324D01*
X607161Y-433324D01*
X607161Y-418541D01*
X621436Y-418541D01*
X621436Y-403707D01*
X635711Y-403707D01*
X635711Y-374091D01*
X592836Y-374091D01*
X592836Y-388874D01*
X564286Y-388874D01*
X564286Y-374091D01*
X550011Y-374091D01*
X550011Y-359257D01*
X535736Y-359257D01*
X535736Y-329641D01*
X521411Y-329641D01*
X521411Y-314807D01*
X507136Y-314807D01*
X507136Y-300024D01*
G37*
G36*
X32258Y-377291D02*
G01*
X32258Y-392023D01*
X54356Y-418947D01*
X64516Y-410311D01*
X53695Y-397916D01*
X49530Y-394055D01*
X65633Y-394563D01*
X124968Y-394563D01*
X124968Y-377291D01*
G37*
G36*
X116585Y-433933D02*
G01*
X113995Y-434136D01*
X111861Y-434695D01*
X110185Y-435660D01*
X108966Y-436981D01*
X107950Y-438556D01*
X107238Y-440283D01*
X106832Y-442112D01*
X106680Y-444093D01*
X106832Y-446074D01*
X107238Y-447903D01*
X107950Y-449630D01*
X108966Y-451205D01*
X110185Y-452424D01*
X111861Y-453288D01*
X113995Y-453847D01*
X116585Y-453999D01*
X119075Y-453847D01*
X121208Y-453288D01*
X123037Y-452424D01*
X124460Y-451205D01*
X125476Y-449630D01*
X126187Y-447903D01*
X126593Y-446074D01*
X126746Y-444093D01*
X126593Y-442112D01*
X126187Y-440283D01*
X125476Y-438556D01*
X124460Y-436981D01*
X123037Y-435660D01*
X121208Y-434695D01*
X119075Y-434136D01*
G37*
G36*
X32258Y-481939D02*
G01*
X32258Y-496671D01*
X54356Y-523595D01*
X64516Y-514959D01*
X53695Y-502564D01*
X49530Y-498703D01*
X65633Y-499211D01*
X124968Y-499211D01*
X124968Y-481939D01*
G37*
G36*
X54610Y-531469D02*
G01*
X54610Y-549503D01*
X99212Y-563372D01*
X104749Y-564743D01*
X111252Y-565759D01*
X111252Y-566267D01*
X106426Y-566775D01*
X99212Y-568096D01*
X54610Y-582015D01*
X54610Y-600049D01*
X124968Y-574649D01*
X124968Y-556869D01*
G37*
G36*
X435864Y-32156D02*
G01*
X435864Y-45872D01*
X463804Y-45872D01*
X467868Y-46075D01*
X471576Y-46736D01*
X474980Y-47853D01*
X478028Y-49428D01*
X480771Y-51409D01*
X483108Y-53848D01*
X485089Y-56743D01*
X486664Y-60096D01*
X487984Y-63855D01*
X488950Y-68122D01*
X489508Y-72898D01*
X489712Y-78130D01*
X487984Y-92506D01*
X482854Y-102768D01*
X478993Y-106426D01*
X474167Y-109016D01*
X468426Y-110591D01*
X461772Y-111150D01*
X453390Y-111150D01*
X453390Y-45872D01*
X435864Y-45872D01*
X435864Y-125120D01*
X461518Y-125120D01*
X474980Y-123748D01*
X486409Y-119786D01*
X491286Y-116789D01*
X495554Y-113080D01*
X499160Y-108762D01*
X502158Y-103784D01*
X506374Y-91998D01*
X507746Y-77622D01*
X506425Y-63906D01*
X502412Y-52730D01*
X499567Y-47955D01*
X496112Y-43840D01*
X492099Y-40335D01*
X487426Y-37490D01*
X482244Y-35153D01*
X476554Y-33477D01*
X470408Y-32461D01*
X463804Y-32156D01*
G37*
G36*
X549656Y-32156D02*
G01*
X522732Y-54508D01*
X531368Y-64668D01*
X542036Y-55372D01*
X547624Y-49682D01*
X547420Y-52324D01*
X547370Y-61366D01*
X547116Y-65786D01*
X547116Y-125120D01*
X564388Y-125120D01*
X564388Y-32156D01*
G37*
D10*
X150113Y-700023D02*
G01*
X150113Y-299973D01*
X75092Y-924986D02*
G01*
X75092Y-774987D01*
X700278Y-850137D02*
G01*
X299973Y-849884D01*
X225092Y-924986D02*
G01*
X75092Y-924986D01*
X850137Y-299973D02*
G01*
X849884Y-700023D01*
X299973Y-149860D02*
G01*
X700023Y-149860D01*
M02*
