G04 Layer: BottomPasteMaskLayer*
G04 EasyEDA v6.5.23, 2023-06-18 18:57:59*
G04 29af4f7b400f4a3c86588e235d028703,9a5be75d700b4a6385dc1106f27949ae,10*
G04 Gerber Generator version 0.2*
G04 Scale: 100 percent, Rotated: No, Reflected: No *
G04 Dimensions in millimeters *
G04 leading zeros omitted , absolute positions ,4 integer and 5 decimal *
%FSLAX45Y45*%
%MOMM*%

%AMMACRO1*21,1,$1,$2,0,0,$3*%
%ADD10MACRO1,0.8X0.9X0.0000*%

%LPD*%
G36*
X798220Y-383489D02*
G01*
X793191Y-388518D01*
X793191Y-468477D01*
X798220Y-473506D01*
X822401Y-473506D01*
X822401Y-436473D01*
X855421Y-436473D01*
X855421Y-473506D01*
X878179Y-473506D01*
X883208Y-468477D01*
X883208Y-388518D01*
X878179Y-383489D01*
G37*
G36*
X798220Y-543509D02*
G01*
X793191Y-548487D01*
X793191Y-627481D01*
X798220Y-632510D01*
X878179Y-632510D01*
X883208Y-627481D01*
X883208Y-548487D01*
X878179Y-543509D01*
X855421Y-543509D01*
X855421Y-581507D01*
X822401Y-581507D01*
X822401Y-543509D01*
G37*
G36*
X304800Y-838200D02*
G01*
X303885Y-822883D01*
X301117Y-807796D01*
X296545Y-793165D01*
X290245Y-779170D01*
X282320Y-766063D01*
X272872Y-753973D01*
X262026Y-743127D01*
X249936Y-733679D01*
X236829Y-725754D01*
X222834Y-719454D01*
X208203Y-714882D01*
X193116Y-712114D01*
X177800Y-711200D01*
X162483Y-712114D01*
X147396Y-714882D01*
X132765Y-719454D01*
X118770Y-725754D01*
X105663Y-733679D01*
X93573Y-743127D01*
X82727Y-753973D01*
X73279Y-766063D01*
X65354Y-779170D01*
X59054Y-793165D01*
X54482Y-807796D01*
X51714Y-822883D01*
X50800Y-838200D01*
X51714Y-853516D01*
X54482Y-868603D01*
X59054Y-883234D01*
X65354Y-897229D01*
X73279Y-910336D01*
X82727Y-922426D01*
X93573Y-933272D01*
X105663Y-942720D01*
X118770Y-950645D01*
X132765Y-956945D01*
X147396Y-961517D01*
X162483Y-964285D01*
X177800Y-965200D01*
X193116Y-964285D01*
X208203Y-961517D01*
X222834Y-956945D01*
X236829Y-950645D01*
X249936Y-942720D01*
X262026Y-933272D01*
X272872Y-922426D01*
X282320Y-910336D01*
X290245Y-897229D01*
X296545Y-883234D01*
X301117Y-868603D01*
X303885Y-853516D01*
G37*
G36*
X965200Y-177800D02*
G01*
X964285Y-162483D01*
X961517Y-147396D01*
X956945Y-132765D01*
X950645Y-118770D01*
X942720Y-105663D01*
X933272Y-93573D01*
X922426Y-82727D01*
X910336Y-73279D01*
X897229Y-65354D01*
X883234Y-59054D01*
X868603Y-54482D01*
X853516Y-51714D01*
X838200Y-50800D01*
X822883Y-51714D01*
X807796Y-54482D01*
X793165Y-59054D01*
X779170Y-65354D01*
X766063Y-73279D01*
X753973Y-82727D01*
X743127Y-93573D01*
X733679Y-105663D01*
X725754Y-118770D01*
X719454Y-132765D01*
X714882Y-147396D01*
X712114Y-162483D01*
X711200Y-177800D01*
X712114Y-193116D01*
X714882Y-208203D01*
X719454Y-222834D01*
X725754Y-236829D01*
X733679Y-249936D01*
X743127Y-262026D01*
X753973Y-272872D01*
X766063Y-282320D01*
X779170Y-290245D01*
X793165Y-296545D01*
X807796Y-301117D01*
X822883Y-303885D01*
X838200Y-304800D01*
X853516Y-303885D01*
X868603Y-301117D01*
X883234Y-296545D01*
X897229Y-290245D01*
X910336Y-282320D01*
X922426Y-272872D01*
X933272Y-262026D01*
X942720Y-249936D01*
X950645Y-236829D01*
X956945Y-222834D01*
X961517Y-208203D01*
X964285Y-193116D01*
G37*
G36*
X965200Y-838200D02*
G01*
X964285Y-822883D01*
X961517Y-807796D01*
X956945Y-793165D01*
X950645Y-779170D01*
X942720Y-766063D01*
X933272Y-753973D01*
X922426Y-743127D01*
X910336Y-733679D01*
X897229Y-725754D01*
X883234Y-719454D01*
X868603Y-714882D01*
X853516Y-712114D01*
X838200Y-711200D01*
X822883Y-712114D01*
X807796Y-714882D01*
X793165Y-719454D01*
X779170Y-725754D01*
X766063Y-733679D01*
X753973Y-743127D01*
X743127Y-753973D01*
X733679Y-766063D01*
X725754Y-779170D01*
X719454Y-793165D01*
X714882Y-807796D01*
X712114Y-822883D01*
X711200Y-838200D01*
X712114Y-853516D01*
X714882Y-868603D01*
X719454Y-883234D01*
X725754Y-897229D01*
X733679Y-910336D01*
X743127Y-922426D01*
X753973Y-933272D01*
X766063Y-942720D01*
X779170Y-950645D01*
X793165Y-956945D01*
X807796Y-961517D01*
X822883Y-964285D01*
X838200Y-965200D01*
X853516Y-964285D01*
X868603Y-961517D01*
X883234Y-956945D01*
X897229Y-950645D01*
X910336Y-942720D01*
X922426Y-933272D01*
X933272Y-922426D01*
X942720Y-910336D01*
X950645Y-897229D01*
X956945Y-883234D01*
X961517Y-868603D01*
X964285Y-853516D01*
G37*
D10*
G01*
X657499Y-425000D03*
G01*
X517499Y-425000D03*
G36*
X304800Y-177800D02*
G01*
X303885Y-162483D01*
X301117Y-147396D01*
X296545Y-132765D01*
X290245Y-118770D01*
X282320Y-105663D01*
X272872Y-93573D01*
X262026Y-82727D01*
X249936Y-73279D01*
X236829Y-65354D01*
X222834Y-59054D01*
X208203Y-54482D01*
X193116Y-51714D01*
X177800Y-50800D01*
X162483Y-51714D01*
X147396Y-54482D01*
X132765Y-59054D01*
X118770Y-65354D01*
X105663Y-73279D01*
X93573Y-82727D01*
X82727Y-93573D01*
X73279Y-105663D01*
X65354Y-118770D01*
X59054Y-132765D01*
X54482Y-147396D01*
X51714Y-162483D01*
X50800Y-177800D01*
X51714Y-193116D01*
X54482Y-208203D01*
X59054Y-222834D01*
X65354Y-236829D01*
X73279Y-249936D01*
X82727Y-262026D01*
X93573Y-272872D01*
X105663Y-282320D01*
X118770Y-290245D01*
X132765Y-296545D01*
X147396Y-301117D01*
X162483Y-303885D01*
X177800Y-304800D01*
X193116Y-303885D01*
X208203Y-301117D01*
X222834Y-296545D01*
X236829Y-290245D01*
X249936Y-282320D01*
X262026Y-272872D01*
X272872Y-262026D01*
X282320Y-249936D01*
X290245Y-236829D01*
X296545Y-222834D01*
X301117Y-208203D01*
X303885Y-193116D01*
G37*
M02*
