G04 Layer: BottomSilkscreenLayer*
G04 EasyEDA v6.5.40, 2024-02-16 17:56:32*
G04 c60ed690b32147d3aa64cc9936141d72,9a5be75d700b4a6385dc1106f27949ae,10*
G04 Gerber Generator version 0.2*
G04 Scale: 100 percent, Rotated: No, Reflected: No *
G04 Dimensions in millimeters *
G04 leading zeros omitted , absolute positions ,4 integer and 5 decimal *
%FSLAX45Y45*%
%MOMM*%

%ADD10C,0.2540*%
%ADD11C,0.1524*%

%LPD*%
G36*
X92506Y-330708D02*
G01*
X86817Y-330962D01*
X81280Y-331622D01*
X75844Y-332740D01*
X70612Y-334264D01*
X65532Y-336143D01*
X60655Y-338429D01*
X55981Y-341071D01*
X51562Y-344068D01*
X47396Y-347370D01*
X43484Y-351028D01*
X39878Y-354888D01*
X36576Y-359054D01*
X33578Y-363524D01*
X30937Y-368147D01*
X28651Y-373024D01*
X26720Y-378104D01*
X25247Y-383336D01*
X24130Y-388772D01*
X23418Y-394309D01*
X23244Y-399186D01*
X72136Y-399186D01*
X72390Y-393598D01*
X73152Y-388467D01*
X74422Y-383794D01*
X76200Y-379628D01*
X78587Y-375920D01*
X81330Y-372719D01*
X84531Y-369976D01*
X88138Y-367690D01*
X92151Y-365912D01*
X96520Y-364642D01*
X101295Y-363880D01*
X106426Y-363626D01*
X157734Y-363626D01*
X157734Y-405790D01*
X156972Y-420268D01*
X157480Y-420268D01*
X187960Y-363626D01*
X204978Y-363626D01*
X204978Y-433222D01*
X220725Y-433222D01*
X220725Y-396392D01*
X247142Y-396392D01*
X247142Y-407568D01*
X233679Y-407568D01*
X233679Y-425094D01*
X240029Y-426110D01*
X242824Y-426364D01*
X247091Y-426161D01*
X250037Y-425551D01*
X252679Y-424484D01*
X255016Y-423062D01*
X257149Y-421233D01*
X258927Y-419049D01*
X260451Y-416559D01*
X261620Y-413664D01*
X263144Y-407365D01*
X263652Y-400202D01*
X263499Y-396290D01*
X262991Y-392633D01*
X262229Y-389280D01*
X259791Y-383336D01*
X258165Y-380847D01*
X256235Y-378663D01*
X254000Y-376834D01*
X251460Y-375513D01*
X248666Y-374548D01*
X245617Y-373989D01*
X240080Y-373837D01*
X235762Y-374345D01*
X231546Y-375462D01*
X225806Y-377850D01*
X221234Y-367182D01*
X226009Y-365353D01*
X231140Y-363880D01*
X236524Y-362915D01*
X242062Y-362610D01*
X247650Y-362915D01*
X252780Y-363728D01*
X257454Y-365201D01*
X261620Y-367182D01*
X265328Y-369722D01*
X268528Y-372719D01*
X271272Y-376174D01*
X273558Y-380136D01*
X275437Y-384505D01*
X276809Y-389280D01*
X277622Y-394411D01*
X277876Y-399948D01*
X277622Y-405688D01*
X276910Y-410972D01*
X275742Y-415848D01*
X274066Y-420268D01*
X271830Y-424230D01*
X269240Y-427634D01*
X266242Y-430580D01*
X262890Y-432968D01*
X259029Y-434848D01*
X254812Y-436219D01*
X250291Y-437032D01*
X245364Y-437286D01*
X238302Y-437032D01*
X231902Y-436270D01*
X226060Y-435000D01*
X220725Y-433222D01*
X204978Y-433222D01*
X204978Y-436270D01*
X192786Y-436270D01*
X192786Y-394360D01*
X193548Y-379374D01*
X193294Y-379374D01*
X162560Y-436270D01*
X145542Y-436270D01*
X145542Y-363626D01*
X128270Y-363626D01*
X128270Y-436270D01*
X108458Y-436270D01*
X102971Y-436016D01*
X97840Y-435254D01*
X93167Y-433984D01*
X88900Y-432206D01*
X85090Y-429818D01*
X81737Y-426923D01*
X78841Y-423570D01*
X76454Y-419760D01*
X74574Y-415340D01*
X73202Y-410413D01*
X72390Y-405028D01*
X72136Y-399186D01*
X23244Y-399186D01*
X23418Y-405688D01*
X24130Y-411226D01*
X25247Y-416661D01*
X26720Y-421893D01*
X28651Y-426974D01*
X30937Y-431850D01*
X33578Y-436473D01*
X36576Y-440943D01*
X39878Y-445109D01*
X43484Y-448970D01*
X47396Y-452628D01*
X51562Y-455930D01*
X55981Y-458927D01*
X60655Y-461568D01*
X65532Y-463854D01*
X70612Y-465734D01*
X75844Y-467258D01*
X81280Y-468376D01*
X86817Y-469036D01*
X92506Y-469290D01*
X257505Y-469290D01*
X263194Y-469036D01*
X268732Y-468376D01*
X274167Y-467258D01*
X279400Y-465734D01*
X284480Y-463854D01*
X289356Y-461568D01*
X293979Y-458927D01*
X298450Y-455930D01*
X302615Y-452628D01*
X306476Y-448970D01*
X310134Y-445109D01*
X313436Y-440943D01*
X316433Y-436473D01*
X319074Y-431850D01*
X321360Y-426974D01*
X323240Y-421893D01*
X324764Y-416661D01*
X325882Y-411226D01*
X326542Y-405688D01*
X326796Y-399999D01*
X326542Y-394309D01*
X325882Y-388772D01*
X324764Y-383336D01*
X323240Y-378104D01*
X321360Y-373024D01*
X319074Y-368147D01*
X316433Y-363524D01*
X313436Y-359054D01*
X310134Y-354888D01*
X306476Y-351028D01*
X302615Y-347370D01*
X298450Y-344068D01*
X293979Y-341071D01*
X289356Y-338429D01*
X284480Y-336143D01*
X279400Y-334264D01*
X274167Y-332740D01*
X268732Y-331622D01*
X263194Y-330962D01*
X257505Y-330708D01*
G37*
G36*
X106680Y-374548D02*
G01*
X103479Y-374700D01*
X100584Y-375158D01*
X97891Y-375970D01*
X95504Y-377088D01*
X93370Y-378663D01*
X91490Y-380593D01*
X89916Y-382828D01*
X88646Y-385470D01*
X87630Y-388467D01*
X86918Y-391820D01*
X86512Y-395579D01*
X86360Y-399694D01*
X86715Y-405638D01*
X87680Y-410870D01*
X89357Y-415340D01*
X91694Y-418998D01*
X94742Y-421792D01*
X98501Y-423773D01*
X102971Y-424942D01*
X108204Y-425348D01*
X114808Y-425348D01*
X114808Y-374548D01*
G37*
G36*
X162712Y-530707D02*
G01*
X157022Y-530910D01*
X151485Y-531622D01*
X146050Y-532739D01*
X140817Y-534212D01*
X135737Y-536143D01*
X130860Y-538429D01*
X126187Y-541070D01*
X121767Y-544068D01*
X117602Y-547370D01*
X113690Y-550976D01*
X110083Y-554888D01*
X106781Y-559054D01*
X103784Y-563473D01*
X101142Y-568147D01*
X98856Y-573024D01*
X96926Y-578104D01*
X95453Y-583336D01*
X94335Y-588772D01*
X93624Y-594309D01*
X93421Y-599998D01*
X93624Y-605688D01*
X94335Y-611225D01*
X95453Y-616661D01*
X96926Y-621893D01*
X98856Y-626973D01*
X101142Y-631850D01*
X103668Y-636270D01*
X142341Y-636270D01*
X166979Y-563372D01*
X183235Y-563372D01*
X207619Y-636270D01*
X192887Y-636270D01*
X187299Y-616966D01*
X162661Y-616966D01*
X157073Y-636270D01*
X103668Y-636270D01*
X106781Y-640943D01*
X110083Y-645109D01*
X113690Y-648970D01*
X117602Y-652627D01*
X121767Y-655929D01*
X126187Y-658926D01*
X130860Y-661568D01*
X135737Y-663854D01*
X140817Y-665734D01*
X146050Y-667258D01*
X151485Y-668375D01*
X157022Y-669036D01*
X162712Y-669290D01*
X187299Y-669290D01*
X192989Y-669036D01*
X198526Y-668375D01*
X203962Y-667258D01*
X209194Y-665734D01*
X214274Y-663854D01*
X219151Y-661568D01*
X223774Y-658926D01*
X228193Y-655929D01*
X232410Y-652627D01*
X236270Y-648970D01*
X239928Y-645109D01*
X243230Y-640943D01*
X246227Y-636473D01*
X248869Y-631850D01*
X251155Y-626973D01*
X253034Y-621893D01*
X254558Y-616661D01*
X255676Y-611225D01*
X256336Y-605688D01*
X256590Y-599998D01*
X256336Y-594309D01*
X255676Y-588772D01*
X254558Y-583336D01*
X253034Y-578104D01*
X251155Y-573024D01*
X248869Y-568147D01*
X246227Y-563473D01*
X243230Y-559054D01*
X239928Y-554888D01*
X236270Y-550976D01*
X232410Y-547370D01*
X228193Y-544068D01*
X223774Y-541070D01*
X219151Y-538429D01*
X214274Y-536143D01*
X209194Y-534212D01*
X203962Y-532739D01*
X198526Y-531622D01*
X192989Y-530910D01*
X187299Y-530707D01*
G37*
G36*
X175107Y-574040D02*
G01*
X172466Y-584301D01*
X165963Y-605790D01*
X183997Y-605790D01*
X177850Y-585927D01*
X176174Y-579475D01*
G37*
G36*
X756412Y-530707D02*
G01*
X750722Y-530961D01*
X745185Y-531622D01*
X739749Y-532739D01*
X734517Y-534263D01*
X729437Y-536143D01*
X724560Y-538429D01*
X719937Y-541070D01*
X715518Y-544068D01*
X711301Y-547370D01*
X707440Y-551027D01*
X703783Y-554888D01*
X700481Y-559054D01*
X697534Y-563524D01*
X695256Y-567436D01*
X736092Y-567436D01*
X740460Y-565404D01*
X745490Y-563880D01*
X750773Y-562914D01*
X755904Y-562610D01*
X759714Y-562762D01*
X763320Y-563321D01*
X766724Y-564184D01*
X769874Y-565404D01*
X773568Y-567436D01*
X795020Y-567436D01*
X799490Y-565404D01*
X804672Y-563880D01*
X809955Y-562914D01*
X815086Y-562610D01*
X818896Y-562762D01*
X823704Y-563626D01*
X866648Y-563626D01*
X881786Y-617321D01*
X882903Y-624078D01*
X883919Y-618744D01*
X885799Y-611479D01*
X899414Y-563626D01*
X913892Y-563626D01*
X890524Y-636270D01*
X875537Y-636270D01*
X852169Y-563626D01*
X823704Y-563626D01*
X825906Y-564184D01*
X829056Y-565404D01*
X832002Y-566928D01*
X834644Y-568756D01*
X837082Y-570890D01*
X841146Y-575818D01*
X842822Y-578612D01*
X844296Y-581660D01*
X845566Y-584962D01*
X846480Y-588467D01*
X847496Y-595985D01*
X847598Y-599948D01*
X847394Y-605485D01*
X846785Y-610616D01*
X845769Y-615391D01*
X844296Y-619760D01*
X842416Y-623722D01*
X840028Y-627176D01*
X837184Y-630174D01*
X833882Y-632714D01*
X830224Y-634695D01*
X826058Y-636168D01*
X821436Y-636981D01*
X816356Y-637286D01*
X811072Y-637082D01*
X806450Y-636524D01*
X802132Y-635457D01*
X797814Y-633730D01*
X797814Y-622808D01*
X804164Y-624789D01*
X808380Y-625805D01*
X812698Y-626313D01*
X817880Y-626160D01*
X820623Y-625551D01*
X823061Y-624484D01*
X825246Y-623062D01*
X827278Y-621385D01*
X829005Y-619302D01*
X830427Y-616915D01*
X831596Y-614172D01*
X832510Y-611124D01*
X833526Y-604113D01*
X833577Y-597204D01*
X832916Y-591616D01*
X831646Y-586689D01*
X829868Y-582625D01*
X827481Y-579221D01*
X824585Y-576580D01*
X822960Y-575564D01*
X819200Y-574243D01*
X817219Y-573887D01*
X812952Y-573887D01*
X808888Y-574497D01*
X805078Y-575716D01*
X799592Y-578104D01*
X795020Y-567436D01*
X773568Y-567436D01*
X775512Y-568756D01*
X778002Y-570890D01*
X780288Y-573278D01*
X782218Y-575818D01*
X783844Y-578612D01*
X785266Y-581660D01*
X787400Y-588467D01*
X788111Y-592124D01*
X788517Y-595985D01*
X788670Y-599948D01*
X788466Y-605485D01*
X787857Y-610616D01*
X786841Y-615391D01*
X785368Y-619760D01*
X783386Y-623722D01*
X780999Y-627176D01*
X778205Y-630174D01*
X774954Y-632714D01*
X771296Y-634695D01*
X767130Y-636168D01*
X762508Y-636981D01*
X757428Y-637286D01*
X752144Y-637082D01*
X747522Y-636524D01*
X743102Y-635457D01*
X738886Y-633730D01*
X738886Y-622808D01*
X745236Y-624789D01*
X749350Y-625805D01*
X753668Y-626313D01*
X758850Y-626160D01*
X761542Y-625551D01*
X764032Y-624484D01*
X766318Y-623062D01*
X768248Y-621385D01*
X769874Y-619302D01*
X771296Y-616915D01*
X772414Y-614172D01*
X773328Y-611124D01*
X774344Y-604113D01*
X774395Y-597204D01*
X773734Y-591616D01*
X772566Y-586689D01*
X771804Y-584606D01*
X770788Y-582625D01*
X768400Y-579221D01*
X765505Y-576580D01*
X762050Y-574802D01*
X758240Y-573887D01*
X754024Y-573887D01*
X749960Y-574497D01*
X746150Y-575716D01*
X740664Y-578104D01*
X736092Y-567436D01*
X695256Y-567436D01*
X692556Y-573024D01*
X690676Y-578104D01*
X689152Y-583336D01*
X688035Y-588772D01*
X687374Y-594309D01*
X687120Y-599998D01*
X687374Y-605688D01*
X688035Y-611225D01*
X689152Y-616661D01*
X690676Y-621893D01*
X692556Y-626973D01*
X694842Y-631850D01*
X697534Y-636524D01*
X700481Y-640943D01*
X703783Y-645109D01*
X707440Y-649020D01*
X711301Y-652627D01*
X715518Y-655929D01*
X719937Y-658926D01*
X724560Y-661568D01*
X729437Y-663854D01*
X734517Y-665784D01*
X739749Y-667258D01*
X745185Y-668375D01*
X750722Y-669086D01*
X756412Y-669290D01*
X893571Y-669290D01*
X899261Y-669086D01*
X904798Y-668375D01*
X910234Y-667258D01*
X915466Y-665784D01*
X920546Y-663854D01*
X925423Y-661568D01*
X930097Y-658926D01*
X934516Y-655929D01*
X938682Y-652627D01*
X942594Y-649020D01*
X946200Y-645109D01*
X949502Y-640943D01*
X952500Y-636524D01*
X955141Y-631850D01*
X957427Y-626973D01*
X959358Y-621893D01*
X960882Y-616661D01*
X961948Y-611225D01*
X962660Y-605688D01*
X962863Y-599998D01*
X962660Y-594309D01*
X961948Y-588772D01*
X960882Y-583336D01*
X959358Y-578104D01*
X957427Y-573024D01*
X955141Y-568147D01*
X952500Y-563524D01*
X949502Y-559054D01*
X946200Y-554888D01*
X942594Y-551027D01*
X938682Y-547370D01*
X934516Y-544068D01*
X930097Y-541070D01*
X925423Y-538429D01*
X920546Y-536143D01*
X915466Y-534263D01*
X910234Y-532739D01*
X904798Y-531622D01*
X899261Y-530961D01*
X893571Y-530707D01*
G37*
G36*
X824992Y-325018D02*
G01*
X819302Y-325221D01*
X813765Y-325932D01*
X808329Y-326999D01*
X803097Y-328523D01*
X798017Y-330454D01*
X793140Y-332740D01*
X788517Y-335381D01*
X784098Y-338378D01*
X779881Y-341680D01*
X776020Y-345287D01*
X772363Y-349199D01*
X769061Y-353364D01*
X766114Y-357784D01*
X763832Y-361746D01*
X804672Y-361746D01*
X809040Y-359714D01*
X814069Y-358190D01*
X819353Y-357225D01*
X824484Y-356920D01*
X828294Y-357073D01*
X831900Y-357581D01*
X835304Y-358495D01*
X838453Y-359714D01*
X841400Y-361238D01*
X844092Y-363067D01*
X846582Y-365150D01*
X848868Y-367588D01*
X850798Y-370128D01*
X852424Y-372922D01*
X853846Y-375970D01*
X855980Y-382778D01*
X856691Y-386435D01*
X857097Y-390245D01*
X857250Y-394258D01*
X857046Y-399745D01*
X856437Y-404926D01*
X855421Y-409651D01*
X853948Y-414070D01*
X851966Y-417982D01*
X849579Y-421487D01*
X846785Y-424484D01*
X843534Y-427024D01*
X839876Y-429006D01*
X835710Y-430428D01*
X831087Y-431292D01*
X826008Y-431596D01*
X820724Y-431393D01*
X816102Y-430834D01*
X811682Y-429717D01*
X807466Y-428040D01*
X807466Y-417118D01*
X815848Y-419658D01*
X820064Y-420420D01*
X824484Y-420674D01*
X827430Y-420471D01*
X830122Y-419811D01*
X832612Y-418795D01*
X834898Y-417372D01*
X836828Y-415645D01*
X838453Y-413613D01*
X839876Y-411226D01*
X840994Y-408482D01*
X841908Y-405384D01*
X842924Y-398424D01*
X842975Y-391515D01*
X842314Y-385927D01*
X841146Y-381000D01*
X840384Y-378866D01*
X838200Y-375208D01*
X835609Y-372059D01*
X834085Y-370840D01*
X830630Y-369062D01*
X828802Y-368503D01*
X824737Y-368096D01*
X820572Y-368401D01*
X816610Y-369366D01*
X812850Y-370738D01*
X809244Y-372414D01*
X804672Y-361746D01*
X763832Y-361746D01*
X761136Y-367334D01*
X759256Y-372414D01*
X757732Y-377647D01*
X756615Y-383032D01*
X755954Y-388620D01*
X755700Y-394309D01*
X755954Y-399999D01*
X756615Y-405536D01*
X757732Y-410921D01*
X759256Y-416204D01*
X761136Y-421284D01*
X763422Y-426110D01*
X766114Y-430784D01*
X769061Y-435203D01*
X772363Y-439369D01*
X776020Y-443280D01*
X779881Y-446887D01*
X784098Y-450189D01*
X788517Y-453186D01*
X793140Y-455828D01*
X798017Y-458114D01*
X803097Y-460044D01*
X808329Y-461568D01*
X813765Y-462686D01*
X819302Y-463346D01*
X824992Y-463600D01*
X836879Y-463600D01*
X842568Y-463346D01*
X848106Y-462686D01*
X853541Y-461568D01*
X858774Y-460044D01*
X863853Y-458114D01*
X868730Y-455828D01*
X873404Y-453186D01*
X877824Y-450189D01*
X881989Y-446887D01*
X885901Y-443280D01*
X889508Y-439369D01*
X892810Y-435203D01*
X895807Y-430784D01*
X898448Y-426110D01*
X900734Y-421284D01*
X902665Y-416204D01*
X904189Y-410921D01*
X905256Y-405536D01*
X905967Y-399999D01*
X906170Y-394309D01*
X905967Y-388620D01*
X905256Y-383032D01*
X904189Y-377647D01*
X902665Y-372414D01*
X900734Y-367334D01*
X898448Y-362458D01*
X895807Y-357784D01*
X892810Y-353364D01*
X889508Y-349199D01*
X885901Y-345287D01*
X881989Y-341680D01*
X877824Y-338378D01*
X873404Y-335381D01*
X868730Y-332740D01*
X863853Y-330454D01*
X858774Y-328523D01*
X853541Y-326999D01*
X848106Y-325932D01*
X842568Y-325221D01*
X836879Y-325018D01*
G37*
G36*
X526034Y-155956D02*
G01*
X519430Y-156311D01*
X509727Y-158191D01*
X504037Y-160223D01*
X501396Y-161544D01*
X506476Y-173228D01*
X510793Y-171297D01*
X515620Y-169672D01*
X520750Y-168351D01*
X526034Y-167894D01*
X529132Y-168046D01*
X532028Y-168554D01*
X534720Y-169316D01*
X539648Y-171754D01*
X541934Y-173380D01*
X543966Y-175310D01*
X545846Y-177546D01*
X547420Y-179933D01*
X548843Y-182626D01*
X551180Y-188722D01*
X552500Y-195783D01*
X552856Y-199644D01*
X552958Y-203708D01*
X552754Y-208991D01*
X552196Y-213918D01*
X551230Y-218541D01*
X549910Y-222758D01*
X548233Y-226466D01*
X546150Y-229768D01*
X543763Y-232562D01*
X541020Y-234950D01*
X537819Y-236829D01*
X534212Y-238201D01*
X530301Y-239014D01*
X526034Y-239267D01*
X520496Y-238963D01*
X515112Y-237998D01*
X509981Y-236778D01*
X504698Y-235204D01*
X504698Y-247396D01*
X509879Y-249174D01*
X515366Y-250444D01*
X521157Y-251002D01*
X527812Y-251206D01*
X534263Y-250850D01*
X540105Y-249732D01*
X545439Y-247904D01*
X550164Y-245364D01*
X554329Y-242163D01*
X557936Y-238302D01*
X560933Y-233883D01*
X563372Y-228854D01*
X566826Y-217119D01*
X567944Y-203708D01*
X567791Y-198526D01*
X567232Y-193548D01*
X566369Y-188874D01*
X565150Y-184404D01*
X563575Y-180136D01*
X561695Y-176123D01*
X559511Y-172516D01*
X557022Y-169164D01*
X554177Y-166166D01*
X551027Y-163525D01*
X547573Y-161188D01*
X543814Y-159258D01*
X539851Y-157835D01*
X535584Y-156768D01*
X530961Y-156159D01*
G37*
G36*
X450596Y-157226D02*
G01*
X450596Y-249936D01*
X464820Y-249936D01*
X464718Y-180949D01*
X464312Y-171704D01*
X471424Y-178562D01*
X480822Y-186944D01*
X488188Y-178054D01*
X462788Y-157226D01*
G37*
G36*
X400050Y-550418D02*
G01*
X400050Y-564388D01*
X468985Y-564286D01*
X478282Y-563880D01*
X471424Y-570992D01*
X463296Y-580390D01*
X471932Y-587756D01*
X492759Y-562356D01*
X492759Y-550418D01*
G37*
G36*
X400050Y-597916D02*
G01*
X400050Y-614426D01*
X437642Y-635000D01*
X437642Y-649224D01*
X449326Y-649224D01*
X449427Y-636016D01*
X450342Y-630682D01*
X451104Y-628396D01*
X452120Y-626465D01*
X453339Y-624840D01*
X454761Y-623468D01*
X456438Y-622300D01*
X458419Y-621538D01*
X462991Y-620623D01*
X468223Y-620623D01*
X470611Y-620979D01*
X472693Y-621538D01*
X474472Y-622300D01*
X475996Y-623468D01*
X477316Y-624890D01*
X478434Y-626618D01*
X479298Y-628650D01*
X479958Y-630936D01*
X480720Y-636270D01*
X480822Y-649224D01*
X400050Y-649224D01*
X400050Y-663702D01*
X492759Y-663702D01*
X492759Y-638556D01*
X492556Y-633222D01*
X491998Y-628345D01*
X491032Y-623925D01*
X489712Y-620014D01*
X488086Y-616661D01*
X486105Y-613765D01*
X483666Y-611327D01*
X480822Y-609346D01*
X477723Y-607771D01*
X474218Y-606653D01*
X470357Y-605993D01*
X466090Y-605790D01*
X462686Y-605942D01*
X459485Y-606348D01*
X456590Y-607060D01*
X453898Y-608076D01*
X449529Y-610920D01*
X447649Y-612597D01*
X444601Y-616356D01*
X442163Y-620420D01*
X441198Y-622554D01*
G37*
D10*
X639000Y-389976D02*
G01*
X639000Y-309973D01*
X528025Y-420961D02*
G01*
X608022Y-420961D01*
X528025Y-278996D02*
G01*
X608022Y-278996D01*
X470435Y-421543D02*
G01*
X390436Y-421543D01*
X359453Y-390560D02*
G01*
X359453Y-310563D01*
X470435Y-279582D02*
G01*
X390436Y-279582D01*
D11*
X508939Y-557377D02*
G01*
X508939Y-461490D01*
X641060Y-461490D01*
X641060Y-557377D01*
X508939Y-642620D02*
G01*
X508939Y-738507D01*
X641060Y-738507D01*
X641060Y-642620D01*
D10*
G75*
G01*
X359448Y-390561D02*
G03*
X390431Y-421543I30983J0D01*
G75*
G01*
X390431Y-279578D02*
G03*
X359448Y-310563I0J-30983D01*
G75*
G01*
X608018Y-420962D02*
G03*
X639000Y-389976I0J30983D01*
G75*
G01*
X639000Y-309979D02*
G03*
X608018Y-278996I-30982J0D01*
M02*
