G04 Layer: BottomLayer*
G04 EasyEDA v6.5.23, 2023-06-12 20:28:52*
G04 67554fb7c96e497cb803cb460b234a07,9a5be75d700b4a6385dc1106f27949ae,10*
G04 Gerber Generator version 0.2*
G04 Scale: 100 percent, Rotated: No, Reflected: No *
G04 Dimensions in millimeters *
G04 leading zeros omitted , absolute positions ,4 integer and 5 decimal *
%FSLAX45Y45*%
%MOMM*%

%AMMACRO1*21,1,$1,$2,0,0,$3*%
%ADD10C,0.2100*%
%ADD11MACRO1,0.8X0.9X0.0000*%
%ADD12R,0.8640X0.8065*%
%ADD13MACRO1,0.864X0.8065X0.0000*%
%ADD14C,0.6096*%
%ADD15C,0.0112*%

%LPD*%
G36*
X316992Y-974090D02*
G01*
X313232Y-973378D01*
X309981Y-971245D01*
X307746Y-968095D01*
X306832Y-964336D01*
X307441Y-960526D01*
X309372Y-957173D01*
X312877Y-953262D01*
X321919Y-941679D01*
X325678Y-936193D01*
X333298Y-923645D01*
X336448Y-917702D01*
X342493Y-904240D01*
X344830Y-897991D01*
X349250Y-883970D01*
X350875Y-877417D01*
X353517Y-862939D01*
X354330Y-856234D01*
X355193Y-841502D01*
X355193Y-834898D01*
X354330Y-820166D01*
X353517Y-813460D01*
X350875Y-798982D01*
X349250Y-792429D01*
X344830Y-778408D01*
X342493Y-772160D01*
X336448Y-758698D01*
X333298Y-752754D01*
X325678Y-740206D01*
X321919Y-734720D01*
X312877Y-723138D01*
X308356Y-718058D01*
X297942Y-707644D01*
X292862Y-703122D01*
X281279Y-694080D01*
X275793Y-690321D01*
X263245Y-682701D01*
X257302Y-679551D01*
X243840Y-673506D01*
X237591Y-671169D01*
X223570Y-666750D01*
X217017Y-665124D01*
X202539Y-662482D01*
X195834Y-661670D01*
X181102Y-660806D01*
X174498Y-660806D01*
X159766Y-661670D01*
X153060Y-662482D01*
X138582Y-665124D01*
X132029Y-666750D01*
X118008Y-671169D01*
X111760Y-673506D01*
X98298Y-679551D01*
X92354Y-682701D01*
X79806Y-690321D01*
X74320Y-694080D01*
X62738Y-703122D01*
X57658Y-707644D01*
X47244Y-718058D01*
X43688Y-722071D01*
X40436Y-724509D01*
X36474Y-725474D01*
X32461Y-724814D01*
X29006Y-722630D01*
X26720Y-719328D01*
X25908Y-715314D01*
X25908Y-300685D01*
X26720Y-296672D01*
X29006Y-293370D01*
X32461Y-291185D01*
X36474Y-290525D01*
X40436Y-291490D01*
X43688Y-293928D01*
X47244Y-297942D01*
X57658Y-308356D01*
X62738Y-312877D01*
X74320Y-321919D01*
X79806Y-325678D01*
X92354Y-333298D01*
X98298Y-336448D01*
X107950Y-340766D01*
X107950Y-247650D01*
X36068Y-247650D01*
X32156Y-246888D01*
X28905Y-244652D01*
X26670Y-241401D01*
X25908Y-237490D01*
X25908Y-118110D01*
X26670Y-114198D01*
X28905Y-110947D01*
X32156Y-108712D01*
X36068Y-107950D01*
X107950Y-107950D01*
X107950Y-36068D01*
X108712Y-32156D01*
X110947Y-28905D01*
X114198Y-26670D01*
X118110Y-25908D01*
X237490Y-25908D01*
X241401Y-26670D01*
X244652Y-28905D01*
X246888Y-32156D01*
X247650Y-36068D01*
X247650Y-107950D01*
X340766Y-107950D01*
X336448Y-98298D01*
X333298Y-92354D01*
X325678Y-79806D01*
X321919Y-74320D01*
X312877Y-62738D01*
X308356Y-57658D01*
X297942Y-47244D01*
X293928Y-43688D01*
X291490Y-40436D01*
X290525Y-36474D01*
X291185Y-32461D01*
X293370Y-29006D01*
X296672Y-26720D01*
X300685Y-25908D01*
X715314Y-25908D01*
X719328Y-26720D01*
X722630Y-29006D01*
X724814Y-32461D01*
X725474Y-36474D01*
X724509Y-40436D01*
X722071Y-43688D01*
X718058Y-47244D01*
X707644Y-57658D01*
X703122Y-62738D01*
X694080Y-74320D01*
X690321Y-79806D01*
X682701Y-92354D01*
X679551Y-98298D01*
X673506Y-111760D01*
X671169Y-118008D01*
X666750Y-132029D01*
X665124Y-138582D01*
X662482Y-153060D01*
X661670Y-159766D01*
X660806Y-174498D01*
X660806Y-181102D01*
X661670Y-195834D01*
X662482Y-202539D01*
X665124Y-217017D01*
X666750Y-223570D01*
X671169Y-237591D01*
X673506Y-243840D01*
X679551Y-257302D01*
X682701Y-263245D01*
X690321Y-275793D01*
X694080Y-281279D01*
X703122Y-292862D01*
X707644Y-297942D01*
X718058Y-308356D01*
X723138Y-312877D01*
X734720Y-321919D01*
X740206Y-325678D01*
X752703Y-333298D01*
X760323Y-337159D01*
X763320Y-339496D01*
X765251Y-342747D01*
X765810Y-346506D01*
X764997Y-350215D01*
X762863Y-353364D01*
X756361Y-359918D01*
X751281Y-367131D01*
X747572Y-375107D01*
X745286Y-383590D01*
X744474Y-392785D01*
X744474Y-472541D01*
X745134Y-479856D01*
X744728Y-483717D01*
X742899Y-487172D01*
X739952Y-489661D01*
X736244Y-490829D01*
X732383Y-490575D01*
X728370Y-489508D01*
X719124Y-488696D01*
X640029Y-488696D01*
X630834Y-489508D01*
X622350Y-491794D01*
X613918Y-495706D01*
X609600Y-496671D01*
X605282Y-495706D01*
X596849Y-491794D01*
X588365Y-489508D01*
X579170Y-488696D01*
X565962Y-488696D01*
X565962Y-555345D01*
X578916Y-555345D01*
X582828Y-556107D01*
X586130Y-558342D01*
X588314Y-561644D01*
X589076Y-565505D01*
X589076Y-602894D01*
X588314Y-606755D01*
X586130Y-610057D01*
X582828Y-612292D01*
X578916Y-613054D01*
X565962Y-613054D01*
X565962Y-679704D01*
X579170Y-679704D01*
X588365Y-678891D01*
X596849Y-676605D01*
X605282Y-672693D01*
X609600Y-671728D01*
X613918Y-672693D01*
X622350Y-676605D01*
X630834Y-678891D01*
X640029Y-679704D01*
X719124Y-679704D01*
X723239Y-679348D01*
X727506Y-679907D01*
X731164Y-682142D01*
X733552Y-685749D01*
X734263Y-690016D01*
X733094Y-694182D01*
X730351Y-697484D01*
X723138Y-703122D01*
X718058Y-707644D01*
X707644Y-718058D01*
X703122Y-723138D01*
X694080Y-734720D01*
X690321Y-740206D01*
X682701Y-752754D01*
X679551Y-758698D01*
X673506Y-772160D01*
X671169Y-778408D01*
X666750Y-792429D01*
X665124Y-798982D01*
X662482Y-813460D01*
X661670Y-820166D01*
X660806Y-834898D01*
X660806Y-841502D01*
X661670Y-856234D01*
X662482Y-862939D01*
X665124Y-877417D01*
X666750Y-883970D01*
X671169Y-897991D01*
X673506Y-904240D01*
X679551Y-917702D01*
X682701Y-923645D01*
X690321Y-936193D01*
X694080Y-941679D01*
X703122Y-953262D01*
X706628Y-957224D01*
X708558Y-960526D01*
X709168Y-964336D01*
X708253Y-968095D01*
X706018Y-971245D01*
X702767Y-973378D01*
X699008Y-974090D01*
G37*

%LPC*%
G36*
X500075Y-679704D02*
G01*
X513283Y-679704D01*
X513283Y-613054D01*
X449122Y-613054D01*
X449122Y-628751D01*
X449884Y-637946D01*
X452170Y-646480D01*
X455879Y-654456D01*
X460959Y-661619D01*
X467156Y-667867D01*
X474370Y-672896D01*
X482346Y-676605D01*
X490829Y-678891D01*
G37*
G36*
X449122Y-555345D02*
G01*
X513283Y-555345D01*
X513283Y-488696D01*
X500075Y-488696D01*
X490829Y-489508D01*
X482346Y-491794D01*
X474370Y-495503D01*
X467156Y-500532D01*
X460959Y-506780D01*
X455879Y-513943D01*
X452170Y-521919D01*
X449884Y-530453D01*
X449122Y-539648D01*
G37*
G36*
X247650Y-340766D02*
G01*
X257302Y-336448D01*
X263245Y-333298D01*
X275793Y-325678D01*
X281279Y-321919D01*
X292862Y-312877D01*
X297942Y-308356D01*
X308356Y-297942D01*
X312877Y-292862D01*
X321919Y-281279D01*
X325678Y-275793D01*
X333298Y-263245D01*
X336448Y-257302D01*
X340766Y-247650D01*
X247650Y-247650D01*
G37*

%LPD*%
D10*
X838200Y-432661D02*
G01*
X838200Y-177800D01*
X838200Y-838200D02*
G01*
X838200Y-583338D01*
X679704Y-584200D02*
G01*
X838200Y-583437D01*
G36*
X304800Y-838200D02*
G01*
X303885Y-822883D01*
X301117Y-807796D01*
X296545Y-793165D01*
X290245Y-779170D01*
X282320Y-766063D01*
X272872Y-753973D01*
X262026Y-743127D01*
X249936Y-733679D01*
X236829Y-725754D01*
X222834Y-719454D01*
X208203Y-714882D01*
X193116Y-712114D01*
X177800Y-711200D01*
X177800Y-711200D01*
X162483Y-712114D01*
X147396Y-714882D01*
X132765Y-719454D01*
X118770Y-725754D01*
X105663Y-733679D01*
X93573Y-743127D01*
X82727Y-753973D01*
X73279Y-766063D01*
X65354Y-779170D01*
X59054Y-793165D01*
X54482Y-807796D01*
X51714Y-822883D01*
X50800Y-838200D01*
X50800Y-838200D01*
X51714Y-853516D01*
X54482Y-868603D01*
X59054Y-883234D01*
X65354Y-897229D01*
X73279Y-910336D01*
X82727Y-922426D01*
X93573Y-933272D01*
X105663Y-942720D01*
X118770Y-950645D01*
X132765Y-956945D01*
X147396Y-961517D01*
X162483Y-964285D01*
X177800Y-965200D01*
X177800Y-965200D01*
X193116Y-964285D01*
X208203Y-961517D01*
X222834Y-956945D01*
X236829Y-950645D01*
X249936Y-942720D01*
X262026Y-933272D01*
X272872Y-922426D01*
X282320Y-910336D01*
X290245Y-897229D01*
X296545Y-883234D01*
X301117Y-868603D01*
X303885Y-853516D01*
X304800Y-838200D01*
G37*
G36*
X965200Y-177800D02*
G01*
X964285Y-162483D01*
X961517Y-147396D01*
X956945Y-132765D01*
X950645Y-118770D01*
X942720Y-105663D01*
X933272Y-93573D01*
X922426Y-82727D01*
X910336Y-73279D01*
X897229Y-65354D01*
X883234Y-59054D01*
X868603Y-54482D01*
X853516Y-51714D01*
X838200Y-50800D01*
X838200Y-50800D01*
X822883Y-51714D01*
X807796Y-54482D01*
X793165Y-59054D01*
X779170Y-65354D01*
X766063Y-73279D01*
X753973Y-82727D01*
X743127Y-93573D01*
X733679Y-105663D01*
X725754Y-118770D01*
X719454Y-132765D01*
X714882Y-147396D01*
X712114Y-162483D01*
X711200Y-177800D01*
X711200Y-177800D01*
X712114Y-193116D01*
X714882Y-208203D01*
X719454Y-222834D01*
X725754Y-236829D01*
X733679Y-249936D01*
X743127Y-262026D01*
X753973Y-272872D01*
X766063Y-282320D01*
X779170Y-290245D01*
X793165Y-296545D01*
X807796Y-301117D01*
X822883Y-303885D01*
X838200Y-304800D01*
X838200Y-304800D01*
X853516Y-303885D01*
X868603Y-301117D01*
X883234Y-296545D01*
X897229Y-290245D01*
X910336Y-282320D01*
X922426Y-272872D01*
X933272Y-262026D01*
X942720Y-249936D01*
X950645Y-236829D01*
X956945Y-222834D01*
X961517Y-208203D01*
X964285Y-193116D01*
X965200Y-177800D01*
G37*
G36*
X965200Y-838200D02*
G01*
X964285Y-822883D01*
X961517Y-807796D01*
X956945Y-793165D01*
X950645Y-779170D01*
X942720Y-766063D01*
X933272Y-753973D01*
X922426Y-743127D01*
X910336Y-733679D01*
X897229Y-725754D01*
X883234Y-719454D01*
X868603Y-714882D01*
X853516Y-712114D01*
X838200Y-711200D01*
X838200Y-711200D01*
X822883Y-712114D01*
X807796Y-714882D01*
X793165Y-719454D01*
X779170Y-725754D01*
X766063Y-733679D01*
X753973Y-743127D01*
X743127Y-753973D01*
X733679Y-766063D01*
X725754Y-779170D01*
X719454Y-793165D01*
X714882Y-807796D01*
X712114Y-822883D01*
X711200Y-838200D01*
X711200Y-838200D01*
X712114Y-853516D01*
X714882Y-868603D01*
X719454Y-883234D01*
X725754Y-897229D01*
X733679Y-910336D01*
X743127Y-922426D01*
X753973Y-933272D01*
X766063Y-942720D01*
X779170Y-950645D01*
X793165Y-956945D01*
X807796Y-961517D01*
X822883Y-964285D01*
X838200Y-965200D01*
X838200Y-965200D01*
X853516Y-964285D01*
X868603Y-961517D01*
X883234Y-956945D01*
X897229Y-950645D01*
X910336Y-942720D01*
X922426Y-933272D01*
X933272Y-922426D01*
X942720Y-910336D01*
X950645Y-897229D01*
X956945Y-883234D01*
X961517Y-868603D01*
X964285Y-853516D01*
X965200Y-838200D01*
G37*
D11*
G01*
X679599Y-584200D03*
G01*
X539600Y-584200D03*
D12*
G01*
X838200Y-432663D03*
D13*
G01*
X838200Y-583324D03*
G36*
X304800Y-177800D02*
G01*
X303885Y-162483D01*
X301117Y-147396D01*
X296545Y-132765D01*
X290245Y-118770D01*
X282320Y-105663D01*
X272872Y-93573D01*
X262026Y-82727D01*
X249936Y-73279D01*
X236829Y-65354D01*
X222834Y-59054D01*
X208203Y-54482D01*
X193116Y-51714D01*
X177800Y-50800D01*
X177800Y-50800D01*
X162483Y-51714D01*
X147396Y-54482D01*
X132765Y-59054D01*
X118770Y-65354D01*
X105663Y-73279D01*
X93573Y-82727D01*
X82727Y-93573D01*
X73279Y-105663D01*
X65354Y-118770D01*
X59054Y-132765D01*
X54482Y-147396D01*
X51714Y-162483D01*
X50800Y-177800D01*
X50800Y-177800D01*
X51714Y-193116D01*
X54482Y-208203D01*
X59054Y-222834D01*
X65354Y-236829D01*
X73279Y-249936D01*
X82727Y-262026D01*
X93573Y-272872D01*
X105663Y-282320D01*
X118770Y-290245D01*
X132765Y-296545D01*
X147396Y-301117D01*
X162483Y-303885D01*
X177800Y-304800D01*
X177800Y-304800D01*
X193116Y-303885D01*
X208203Y-301117D01*
X222834Y-296545D01*
X236829Y-290245D01*
X249936Y-282320D01*
X262026Y-272872D01*
X272872Y-262026D01*
X282320Y-249936D01*
X290245Y-236829D01*
X296545Y-222834D01*
X301117Y-208203D01*
X303885Y-193116D01*
X304800Y-177800D01*
G37*
D14*
G01*
X838200Y-177800D03*
G01*
X177800Y-838200D03*
M02*
