G04 Layer: BottomSilkscreenLayer*
G04 EasyEDA v6.5.23, 2023-06-12 20:28:52*
G04 b280e674f7d0493ebffa007e2a95c9c9,9a5be75d700b4a6385dc1106f27949ae,10*
G04 Gerber Generator version 0.2*
G04 Scale: 100 percent, Rotated: No, Reflected: No *
G04 Dimensions in millimeters *
G04 leading zeros omitted , absolute positions ,4 integer and 5 decimal *
%FSLAX45Y45*%
%MOMM*%

%ADD10C,0.1524*%
%ADD11C,0.1500*%
%ADD12C,0.2540*%

%LPD*%
D10*
X174244Y-570484D02*
G01*
X215900Y-679450D01*
X174244Y-570484D02*
G01*
X132842Y-679450D01*
X200405Y-643128D02*
G01*
X148336Y-643128D01*
X607821Y-151892D02*
G01*
X613155Y-141478D01*
X623570Y-131063D01*
X633729Y-125984D01*
X654557Y-125984D01*
X664971Y-131063D01*
X675386Y-141478D01*
X680720Y-151892D01*
X685800Y-167639D01*
X685800Y-193547D01*
X680720Y-209042D01*
X675386Y-219455D01*
X664971Y-229870D01*
X654557Y-234950D01*
X633729Y-234950D01*
X623570Y-229870D01*
X613155Y-219455D01*
X607821Y-209042D01*
X698500Y-786384D02*
G01*
X656844Y-895350D01*
X615442Y-786384D02*
G01*
X656844Y-895350D01*
X503173Y-812292D02*
G01*
X508254Y-801878D01*
X518668Y-791463D01*
X529081Y-786384D01*
X549910Y-786384D01*
X560323Y-791463D01*
X570737Y-801878D01*
X575818Y-812292D01*
X581152Y-828039D01*
X581152Y-853947D01*
X575818Y-869442D01*
X570737Y-879855D01*
X560323Y-890270D01*
X549910Y-895350D01*
X529081Y-895350D01*
X518668Y-890270D01*
X508254Y-879855D01*
X503173Y-869442D01*
X390905Y-812292D02*
G01*
X396239Y-801878D01*
X406400Y-791463D01*
X416813Y-786384D01*
X437642Y-786384D01*
X448055Y-791463D01*
X458470Y-801878D01*
X463550Y-812292D01*
X468884Y-828039D01*
X468884Y-853947D01*
X463550Y-869442D01*
X458470Y-879855D01*
X448055Y-890270D01*
X437642Y-895350D01*
X416813Y-895350D01*
X406400Y-890270D01*
X396239Y-879855D01*
X390905Y-869442D01*
D11*
X535536Y-412236D02*
G01*
X539628Y-404055D01*
X547809Y-395871D01*
X555990Y-391782D01*
X572353Y-391782D01*
X580537Y-395871D01*
X588718Y-404055D01*
X592808Y-412236D01*
X596900Y-424510D01*
X596900Y-444964D01*
X592808Y-457235D01*
X588718Y-465419D01*
X580537Y-473600D01*
X572353Y-477690D01*
X555990Y-477690D01*
X547809Y-473600D01*
X539628Y-465419D01*
X535536Y-457235D01*
X508535Y-408144D02*
G01*
X500354Y-404055D01*
X488081Y-391782D01*
X488081Y-477690D01*
X658482Y-381000D02*
G01*
X744390Y-381000D01*
X658482Y-381000D02*
G01*
X658482Y-417817D01*
X662571Y-430090D01*
X666663Y-434182D01*
X674844Y-438271D01*
X683026Y-438271D01*
X691210Y-434182D01*
X695299Y-430090D01*
X699391Y-417817D01*
X699391Y-381000D01*
X699391Y-409635D02*
G01*
X744390Y-438271D01*
X674844Y-465272D02*
G01*
X670755Y-473453D01*
X658482Y-485726D01*
X744390Y-485726D01*
D10*
X252267Y-342437D02*
G01*
X257464Y-332046D01*
X267855Y-321655D01*
X278244Y-316461D01*
X299026Y-316461D01*
X309417Y-321655D01*
X319808Y-332046D01*
X325005Y-342437D01*
X330200Y-358025D01*
X330200Y-384002D01*
X325005Y-399587D01*
X319808Y-409978D01*
X309417Y-420370D01*
X299026Y-425564D01*
X278244Y-425564D01*
X267855Y-420370D01*
X257464Y-409978D01*
X252267Y-399587D01*
X252267Y-384002D01*
X278244Y-384002D02*
G01*
X252267Y-384002D01*
X217977Y-316461D02*
G01*
X217977Y-425564D01*
X217977Y-316461D02*
G01*
X145242Y-425564D01*
X145242Y-316461D02*
G01*
X145242Y-425564D01*
X110952Y-316461D02*
G01*
X110952Y-425564D01*
X110952Y-316461D02*
G01*
X74584Y-316461D01*
X58996Y-321655D01*
X48605Y-332046D01*
X43411Y-342437D01*
X38214Y-358025D01*
X38214Y-384002D01*
X43411Y-399587D01*
X48605Y-409978D01*
X58996Y-420370D01*
X74584Y-425564D01*
X110952Y-425564D01*
D12*
X748601Y-624177D02*
G01*
X748601Y-544174D01*
X637626Y-655162D02*
G01*
X717623Y-655162D01*
X637626Y-513196D02*
G01*
X717623Y-513196D01*
X580036Y-655744D02*
G01*
X500037Y-655744D01*
X469054Y-624761D02*
G01*
X469054Y-544763D01*
X580036Y-513783D02*
G01*
X500037Y-513783D01*
D10*
X772139Y-465378D02*
G01*
X772139Y-369491D01*
X904260Y-369491D01*
X904260Y-465378D01*
X772139Y-550621D02*
G01*
X772139Y-646508D01*
X904260Y-646508D01*
X904260Y-550621D01*
D12*
G75*
G01*
X469049Y-624761D02*
G03*
X500032Y-655744I30983J0D01*
G75*
G01*
X500032Y-513778D02*
G03*
X469049Y-544764I0J-30983D01*
G75*
G01*
X717619Y-655163D02*
G03*
X748601Y-624177I0J30983D01*
G75*
G01*
X748601Y-544180D02*
G03*
X717619Y-513197I-30982J0D01*
M02*
